<svg width="20" height="20" viewBox="0 0 20 20" fill="none" xmlns="http://www.w3.org/2000/svg">
<path d="M18.9222 1.07625C18.2297 0.381875 17.3059 0 16.3253 0C15.3447 0 14.4222 0.38125 13.7291 1.075L2.68344 12.0569C2.61781 12.1219 2.56781 12.2 2.53656 12.2863L0.0365617 19.1613C-0.0440633 19.3831 0.00781165 19.6337 0.170937 19.8056C0.290937 19.9319 0.455312 20 0.624687 20C0.685937 20 0.747187 19.9912 0.807812 19.9725L7.02594 18.065C7.12344 18.0356 7.21219 17.9819 7.28469 17.91L18.9228 6.27187C19.6178 5.57875 19.9997 4.655 19.9997 3.67375C19.9991 2.69312 19.6178 1.77 18.9222 1.07625ZM6.30719 16.9781L3.97969 17.6931C3.84406 17.295 3.63281 16.9425 3.34469 16.6544C3.09406 16.405 2.80344 16.2113 2.49719 16.0538L3.56219 13.125H4.99969V14.375C4.99969 14.7206 5.27906 15 5.62469 15H6.72781L6.30719 16.9781ZM15.5072 7.91937L7.89219 15.5344L8.11094 14.505C8.14969 14.32 8.10344 14.1281 7.98469 13.9819C7.86594 13.835 7.68781 13.75 7.49969 13.75H6.24969V12.5C6.24969 12.155 5.96969 11.875 5.62469 11.875H4.63844L12.0716 4.48438L12.0791 4.49125C12.5366 4.03312 13.1459 3.78125 13.7928 3.78125C14.4397 3.78125 15.0497 4.03312 15.5066 4.49125C15.9634 4.94937 16.2178 5.55813 16.2178 6.20563C16.2178 6.85313 15.9659 7.46125 15.5072 7.91937ZM18.0384 5.38813L17.4559 5.97125C17.3997 5.07812 17.0291 4.24563 16.3916 3.6075C15.7534 2.96875 14.9203 2.59875 14.0247 2.54312L14.6109 1.96125L14.6122 1.96C15.0684 1.50187 15.6778 1.25 16.3253 1.25C16.9728 1.25 17.5816 1.50187 18.0384 1.96C18.4972 2.41812 18.7497 3.02687 18.7497 3.67375C18.7497 4.32187 18.4984 4.93062 18.0384 5.38813ZM13.9328 5.18313L7.68281 11.4331C7.43844 11.6775 7.43844 12.0725 7.68281 12.3169C7.80406 12.4388 7.96469 12.5 8.12469 12.5C8.28469 12.5 8.44406 12.4388 8.56656 12.3169L14.8166 6.06687C15.0609 5.8225 15.0609 5.4275 14.8166 5.18313C14.5716 4.93875 14.1772 4.93875 13.9328 5.18313Z" fill="white"/>
</svg>
